<?xml version="1.0" encoding="utf-8"?>
<!-- Generator: Adobe Illustrator 26.3.1, SVG Export Plug-In . SVG Version: 6.00 Build 0)  -->
<svg version="1.1" id="Layer_1" xmlns="http://www.w3.org/2000/svg" xmlns:xlink="http://www.w3.org/1999/xlink" x="0px" y="0px"
	 viewBox="0 0 800 600" style="enable-background:new 0 0 800 600;" xml:space="preserve">
<style type="text/css">
	.st0{fill:#F2F2F2;}
	.st1{fill:#FFFFFF;}
	.st2{fill:#3F3D56;}
	.st3{fill:#CCCCCC;}
	.st4{fill:#3535E5;}
	.st5{fill:#FF6584;}
	.st6{fill:#FFB8B8;}
	.st7{fill:#2F2E41;}
</style>
<path class="st0" d="M119.6,562.7c-63.3-16.5-107.1-74-106.1-139.4c0.1-7.9,1-16,4.3-23.2s9.5-13.4,17.2-15.1
	c8.4-1.9,17.3,1.9,23.6,7.9c6.3,5.9,10.4,13.7,14.2,21.5c22.8,46.7,40.2,96.9,46.7,148.5L119.6,562.7z"/>
<path class="st1" d="M31.2,386.6l16,36.4l16,36.4c5.1,11.5,10.1,23,15.4,34.5c5.2,11.3,10.6,22.6,16.3,33.7
	c5.7,11.1,11.8,21.9,18.4,32.5c0.8,1.3,1.7,2.6,2.5,3.9c0.6,0.9,2,0.1,1.4-0.8c-6.7-10.5-12.9-21.3-18.7-32.3
	c-5.8-11-11.3-22.3-16.5-33.6c-5.3-11.4-10.3-22.8-15.4-34.3c-5.3-12.1-10.6-24.2-15.9-36.2l-16-36.4l-2-4.5
	C32.3,384.8,30.8,385.6,31.2,386.6L31.2,386.6z"/>
<path class="st0" d="M112.9,562.9c-37.3,8.5-75.6-9.5-92.7-43.7c-2.1-4.1-3.8-8.6-4-13.2s1.3-9.5,4.9-12.5c3.9-3.2,9.5-3.7,14.4-2.3
	s9.1,4.3,13.2,7.3c24.5,18.1,47,39.4,64.3,64.5L112.9,562.9z"/>
<path class="st1" d="M19.5,495.4l18.1,14.6l18.1,14.6c5.7,4.6,11.5,9.2,17.3,13.8c5.8,4.5,11.6,8.9,17.6,13.1
	c6,4.2,12.1,8.2,18.3,11.9c0.8,0.5,1.6,0.9,2.4,1.4c0.5,0.3,1.1-0.5,0.5-0.8c-6.3-3.6-12.5-7.6-18.5-11.7c-6-4.2-11.9-8.5-17.6-13
	c-5.8-4.5-11.5-9.1-17.3-13.7c-6-4.8-12-9.7-18.1-14.5l-18.1-14.6l-2.3-1.8C19.6,494.1,19,495,19.5,495.4L19.5,495.4z"/>
<path class="st2" d="M779.5,34.3h-487c-3.9,0-7,3.1-7,7v330c0,3.9,3.1,7,7,7h487c3.9,0,7-3.1,7-7v-330
	C786.5,37.4,783.3,34.3,779.5,34.3z M784.5,371.3c0,2.8-2.2,5-5,5h-487c-2.8,0-5-2.2-5-5v-330c0-2.8,2.2-5,5-5h487c2.8,0,5,2.2,5,5
	V371.3z"/>
<rect x="286.5" y="62.3" class="st2" width="499" height="2"/>
<circle class="st2" cx="303.5" cy="49.3" r="6"/>
<circle class="st2" cx="320.7" cy="49.3" r="6"/>
<circle class="st2" cx="338" cy="49.3" r="6"/>
<path class="st3" d="M408.3,108.8h-84c-3.9,0-7-3.1-7-7s3.1-7,7-7h84c3.9,0,7,3.1,7,7S412.2,108.8,408.3,108.8z"/>
<path class="st3" d="M523.3,142.8h-199c-3.9,0-7-3.1-7-7s3.1-7,7-7h199c3.9,0,7,3.1,7,7S527.2,142.8,523.3,142.8L523.3,142.8z"/>
<path class="st4" d="M587.5,156.3c-28.4,41.4-17.9,98.1,23.6,126.5c15.2,10.4,33.1,16,51.5,16v-79.4L587.5,156.3z"/>
<path class="st3" d="M662.6,116.8c-30,0-58.1,14.8-75,39.5l75,63V116.8z"/>
<path class="st2" d="M662.6,299.8h-1v-184h1c50.8,0,92,41.2,92,92S713.4,299.8,662.6,299.8z M663.6,117.8v180
	c49.7-0.6,89.5-41.3,89-91C752,157.9,712.5,118.3,663.6,117.8z"/>
<path class="st3" d="M382.3,337.3h-17c-2.5,0-4.5-2-4.5-4.5v-49c0-2.5,2-4.5,4.5-4.5h17c2.5,0,4.5,2,4.5,4.5v49
	C386.8,335.3,384.8,337.3,382.3,337.3z"/>
<path class="st5" d="M432.3,337.3h-17c-2.5,0-4.5-2-4.5-4.5v-72c0-2.5,2-4.5,4.5-4.5h17c2.5,0,4.5,2,4.5,4.5v72
	C436.8,335.3,434.8,337.3,432.3,337.3z"/>
<path class="st4" d="M482.3,337.3h-17c-2.5,0-4.5-2-4.5-4.5v-92c0-2.5,2-4.5,4.5-4.5h17c2.5,0,4.5,2,4.5,4.5v92
	C486.8,335.3,484.8,337.3,482.3,337.3z"/>
<path class="st2" d="M382.3,337.8h-17c-2.8,0-5-2.2-5-5v-110c0-2.8,2.2-5,5-5h17c2.8,0,5,2.2,5,5v110
	C387.3,335.5,385.1,337.8,382.3,337.8z M365.3,219.8c-1.7,0-3,1.3-3,3v110c0,1.7,1.3,3,3,3h17c1.7,0,3-1.3,3-3v-110c0-1.7-1.3-3-3-3
	H365.3z"/>
<path class="st2" d="M432.3,337.8h-17c-2.8,0-5-2.2-5-5v-110c0-2.8,2.2-5,5-5h17c2.8,0,5,2.2,5,5v110
	C437.3,335.5,435.1,337.8,432.3,337.8z M415.3,219.8c-1.7,0-3,1.3-3,3v110c0,1.7,1.3,3,3,3h17c1.7,0,3-1.3,3-3v-110c0-1.7-1.3-3-3-3
	H415.3z"/>
<path class="st2" d="M482.3,337.8h-17c-2.8,0-5-2.2-5-5v-110c0-2.8,2.2-5,5-5h17c2.8,0,5,2.2,5,5v110
	C487.3,335.5,485.1,337.8,482.3,337.8z M465.3,219.8c-1.7,0-3,1.3-3,3v110c0,1.7,1.3,3,3,3h17c1.7,0,3-1.3,3-3v-110c0-1.7-1.3-3-3-3
	H465.3z"/>
<path class="st6" d="M126,393.3c1.5-5.4-1.7-10.9-7-12.4c-0.6-0.2-1.2-0.3-1.7-0.3l-8.6-34.7L96,359.6l10.1,30.8
	c-0.1,5.6,4.3,10.2,9.9,10.4C120.6,400.9,124.8,397.8,126,393.3L126,393.3z"/>
<path class="st7" d="M102.9,382.6c-1.2-0.5-2.1-1.5-2.5-2.7L86,335.8c-3.7-10.6-3.4-22.2,0.8-32.6l13.8-34.4
	c1.3-7.9,8.8-13.2,16.7-11.9c7.9,1.3,13.2,8.8,11.9,16.7c0,0,0,0,0,0l-19.1,55.6l6.7,45.2c0.2,1.9-0.8,3.7-2.5,4.5l-7.7,3.7
	c-0.8,0.4-1.8,0.5-2.7,0.4C103.6,382.8,103.2,382.8,102.9,382.6z"/>
<polygon class="st6" points="173.9,552.7 186.1,552.7 192,505.4 173.9,505.4 "/>
<path class="st7" d="M209.8,564.1l-38.5,0l0,0l0-14.9l0,0l23.6,0C203.1,549.2,209.8,555.9,209.8,564.1L209.8,564.1L209.8,564.1z"/>
<polygon class="st6" points="112.9,552.7 125.1,552.7 131,505.4 112.9,505.4 "/>
<path class="st7" d="M148.8,564.1l-38.5,0l0,0l0-14.9l0,0l23.6,0C142.1,549.2,148.8,555.9,148.8,564.1L148.8,564.1L148.8,564.1z"/>
<path class="st7" d="M177.2,360l10.8,85.4c1.5,11.7,2.5,23.5,3.1,35.3l2.9,58.1c0.1,2.2-1.6,4.1-3.8,4.2c-0.1,0-0.1,0-0.2,0h-16.4
	c-2,0-3.7-1.4-4-3.4L155,442.7c-0.2-1.1-1.2-1.8-2.3-1.7c-0.8,0.1-1.5,0.8-1.7,1.6l-17.7,94.9c-0.4,1.8-1.8,3.1-3.6,3.2l-15.1,1
	c-2.2,0.2-4.1-1.5-4.3-3.7c0-0.1,0-0.3,0-0.4l4.9-155.6L177.2,360z"/>
<circle class="st6" cx="129.5" cy="213.8" r="24.6"/>
<path class="st4" d="M110.2,384c6,14,32,24,38,4c4.6-15.5,23-22,31.1-24.1c2.1-0.6,3.4-2.7,2.9-4.9l-22.7-89
	c-2.7-10.5-10.7-18.9-21.1-22.2c-18-5.6-37,5.9-40.1,24.5c-0.8,5.2-1.4,10.5-1.6,15.8C95,327.4,106.3,374.8,110.2,384z"/>
<path class="st6" d="M191.6,384c-0.6-5.5-5.5-9.6-11-9c-0.6,0.1-1.2,0.2-1.7,0.3L158.4,346l-6.8,17.3l20.5,25.2
	c1.9,5.3,7.7,8,12.9,6.1C189.4,393,192.1,388.6,191.6,384L191.6,384z"/>
<path class="st7" d="M166.3,382.3c-1.3,0-2.5-0.6-3.3-1.6l-29.3-36.1c-7.3-8.6-11.2-19.5-11-30.7l0.6-37
	c-1.6-7.8,3.4-15.5,11.3-17.1c7.8-1.6,15.5,3.4,17.1,11.3c0,0,0,0,0,0l2.2,58.7l22.5,39.8c0.8,1.7,0.5,3.7-0.8,5.1l-5.9,6.2
	c-0.6,0.7-1.4,1.1-2.3,1.3C167,382.3,166.6,382.3,166.3,382.3z"/>
<path class="st7" d="M110.8,233.9c1.9,1.1,4.4,0.5,5.5-1.4c0.2-0.3,0.3-0.6,0.4-1l0-0.1c0.4-1.9,0.1-3.8-0.1-5.7s0.1-4,1.4-5.4
	c2.4-2.6,6.7-1.2,10.3-1.9c4.3-0.9,7.1-4.9,6.7-9.3c0-0.4-0.1-0.8-0.2-1.2c-0.8-3.6,1.5-7.2,5.1-7.9c0.6-0.1,1.2-0.2,1.8-0.1
	c3.5,0.2,7.4,1.3,10.3-1.4c2.2-2.1,2.9-5.3,1.8-8.2c-1.7-4.8-6.4-7.4-11.1-8.8c-11.7-3.4-24.4-1.3-34.4,5.6c-3,2.1-5.7,4.7-7,8.1
	s-0.7,7.7,2.2,9.9c-4.5,4.8-6.1,11.5-4.2,17.8C100.8,227.6,107.5,232,110.8,233.9z"/>
<path class="st2" d="M289.7,565.7h-265c-0.6,0-1-0.4-1-1s0.4-1,1-1h265c0.6,0,1,0.4,1,1S290.2,565.7,289.7,565.7z"/>
</svg>
