<?xml version="1.0" encoding="utf-8"?>
<!-- Generator: Adobe Illustrator 26.3.1, SVG Export Plug-In . SVG Version: 6.00 Build 0)  -->
<svg version="1.1" id="Layer_1" xmlns="http://www.w3.org/2000/svg" xmlns:xlink="http://www.w3.org/1999/xlink" x="0px" y="0px"
	 viewBox="0 0 800 600" style="enable-background:new 0 0 800 600;" xml:space="preserve">
<style type="text/css">
	.st0{fill:#FFB6B6;}
	.st1{fill:#2F2E41;}
	.st2{fill:#3535E5;}
	.st3{fill:#FFFFFF;}
	.st4{fill:#FFB8B8;}
	.st5{fill:#E6E6E6;}
	.st6{fill:#F2F2F2;}
	.st7{fill:#3F3D56;}
	.st8{opacity:0.2;enable-background:new    ;}
	.st9{fill:#CACACA;}
</style>
<polygon class="st0" points="549.5,584 535.7,584 529.1,530.7 549.5,530.7 "/>
<path class="st1" d="M549.1,579.5l-14.7-6l-0.4-0.2l-8.1,6.2c-9.6,0-17.3,7.8-17.3,17.3v0.6H553v-17.9H549.1z"/>
<polygon class="st0" points="674.3,566 661.9,572.2 632.3,527.5 650.5,518.4 "/>
<path class="st1" d="M675.4,560.4l-3.2,1.6l-0.3,0.2l-15.8,1.2l-0.5,0l-4.5,9.1c-8.6,4.3-12,14.7-7.8,23.2c0,0,0,0,0,0l0.2,0.5
	l39.9-19.9L675.4,560.4z"/>
<path class="st1" d="M540.1,297.7l76.2,2.7l0.5-0.8c0,0,6.5,15.2,6.5,28.1c0,4.3-3,32.6-1.5,37.9c0.2,0.7-1.1,2.3-0.7,5.4
	c0.3,2,1.8,0.5,2.2,3.2c0.3,2-2.4,3.1-2.2,5.4c0.3,2.5,4,10.7,4.4,13.5c3.6,29.9,8.3,73.2,8.3,73.2s19,51,23.1,51.8
	c6.8,1.4,11.3,13.7,7.6,16.2c-1.8,1.2-24.8,9.4-24.8,9.4c-1.3,0.2-5.2-1.8-2.7-6.5c0.5-0.9-2.3,1.3-2.8,0.3
	c-0.5-1.1,0.5-5.5-0.1-6.7c-5-11-12.8-26.2-20.1-34c-10.8-11.5-17.7-26.2-19.6-42l-16.8-93.2l-5.8,26.1l-4.8,4.7l1.3,11l-0.2,10.7
	l-11.9,44.4c0,0-1.8,82.9,1.1,85.5c1.6,1.4,8.1,19-4.3,20.6l-22.7-1.7c0,0-3.1-6.4-1.5-8.7c1.5-2.3,1.4-1.7-0.4-5.4
	s-1.1-10.1-1.1-10.1c-3-29.9-4.1-59.9-3.5-89.9c1.1-49.3,8-105.9,8-107c0.1-1.2-0.2-2.4-0.6-3.4v-3.1l2.9-11L540.1,297.7z"/>
<circle class="st2" cx="647.3" cy="276.9" r="30.1"/>
<path class="st3" d="M643.2,292.6c-1.1,0-2-0.5-2.7-1.3l-8.2-10.9c-1.1-1.5-0.8-3.6,0.7-4.7c1.5-1.1,3.6-0.8,4.7,0.7c0,0,0,0,0,0
	l5.4,7.2l13.8-20.7c1-1.5,3.1-2,4.6-0.9c1.5,1,2,3.1,0.9,4.6L646,291.1C645.4,292,644.4,292.5,643.2,292.6
	C643.3,292.6,643.2,292.6,643.2,292.6z"/>
<path class="st4" d="M662.2,308.7c1.1-4.6-1.8-9.3-6.4-10.4c-0.5-0.1-1-0.2-1.5-0.2l-15.4-52.5l-10.4,12.1l16.6,49.2
	c0,4.8,4,8.7,8.8,8.6C657.8,315.4,661.3,312.6,662.2,308.7z"/>
<path class="st5" d="M651.3,283.1l-2-7.3l2.3-4.4l-0.2-0.5l-0.7-2l-3.6-2.9l1.3-3.7l-4.5-12.9l-1.1-2.2l-26.1-52.4l-6.3-12.6
	l-1.5-2.3l-4.5-7.1l-6.2-9.7c-2-3.1-5.1-5.3-8.7-6.1c-0.6-0.1-1.2-0.2-1.8-0.3l-0.4,0c-1.1-0.1-2.1,0-3.2,0.2h0
	c-1.8,0.3-3.6,1-5.1,2c-1.2,0.8-2.3,1.8-3.2,2.9c-2.1,2.6-3.2,5.9-3.1,9.3l0.2,5.3l0.2,4.8l9.2,16.6l0.6,1.1l0,0l28.2,51l8.5,15.4
	l1.3,2.3l5.7,3.8l-1.5,3.8l0.4,5.9l4.9,3.7l7,7.2l0.3,0.6l2.2-1.1l0.2-0.1l0.5-0.1l6.7-2l4.1-1.2l0.1,0l1.1-0.3L651.3,283.1z"/>
<path class="st6" d="M767.1,521.4c-4.2-5.3-11.2-7.5-17.6-5.6l-0.7,0.2l-6.2,24.3c-0.9-3.6-2.9-11.8-4.2-19.8l-0.1-0.7l-0.6,0.3
	c-6.5,2.9-12.6,6.6-18.2,11c-20,16-31.9,40-32.6,65.7l0,0.5l0,0.3l0.8-0.3l17.7-6.3c15.8,1.4,31.5-4.4,42.5-15.8
	c7.1-7.5,12-17.2,16.8-26.6c1.4-2.7,2.8-5.5,4.3-8.2C772.2,534.2,771.5,526.8,767.1,521.4z"/>
<polygon class="st7" points="314,118.7 311.9,118.7 311.9,35.3 468.5,35.3 468.5,37.5 314,37.5 "/>
<circle class="st2" cx="492.5" cy="30.1" r="30.1"/>
<path class="st3" d="M488.4,45.7c-1.1,0-2-0.5-2.7-1.3l-8.2-10.9c-1.1-1.5-0.8-3.6,0.7-4.7c1.5-1.1,3.6-0.8,4.7,0.7c0,0,0,0,0,0
	l5.4,7.2L502,15.9c1-1.5,3.1-2,4.6-0.9c1.5,1,2,3.1,0.9,4.6c0,0,0,0,0,0l-16.4,24.6C490.6,45.1,489.6,45.7,488.4,45.7
	C488.4,45.7,488.4,45.7,488.4,45.7z"/>
<polygon class="st7" points="207.9,321.2 205.8,321.2 205.8,404.6 362.4,404.6 362.4,402.4 207.9,402.4 "/>
<circle class="st2" cx="386.4" cy="404.7" r="30.1"/>
<path class="st3" d="M382.3,420.3c-1.1,0-2-0.5-2.7-1.3l-8.2-10.9c-1.1-1.5-0.8-3.6,0.7-4.7c1.5-1.1,3.6-0.8,4.7,0.7c0,0,0,0,0,0
	l5.4,7.2l13.8-20.7c1-1.5,3.1-2,4.6-0.9c1.5,1,2,3.1,0.9,4.6l-16.4,24.6C384.5,419.7,383.5,420.3,382.3,420.3
	C382.3,420.3,382.3,420.3,382.3,420.3z"/>
<path class="st5" d="M624.4,324.3c0,2.3-0.3,4.5-1.1,6.7l-0.2,0c-19.2,3.3-36.4,3.9-44.3-7.9c-10.4-13.2-24.6-13-40.5-7.2l-1.9-2
	l-3.2-3.5l2.9-3.3l-2.9-6.4l2.5-7.9l3.1-0.6l-0.8-6.8l-1.3-4l3.9-4.3l3.3-10.6l-2.4-22.2c-3.2-30.5,3-61.2,18-87.9l9-8.1l3.7-3.4
	l5-9.4l5.3,0.6l14.3,1.7l0.5,1.2l3.5,8.5l18.5,19.9l-0.8,8.4l-0.4,3.7l-0.3,2.7l-1.3,12.8l-5.2,52.4l-0.4,2.8l-4.2,30.1
	c6.8,6.6,12.8,19.3,15.7,30.8c0.3,1.3-0.6,2.6-0.4,3.9c0.3,1.8,1.8,3.5,2,5.1C624.3,321.3,624.4,322.8,624.4,324.3z"/>
<circle class="st0" cx="587.7" cy="107.1" r="24.9"/>
<path class="st1" d="M617.7,100.3c-1.5-4.6-5.5-8.5-10.3-9c1.1-9.2-5.5-17.6-14.7-18.7c-3.4-0.4-6.9,0.2-9.9,1.9
	c-1.2-1.4-3-2.1-4.8-1.8c-1.8,0.3-3.5,1-4.9,2.1c-7.2,5.3-10.9,14-9.7,22.9c0-2.2,1,2.1,3.7,2.4c2.3,0.5,4.5,1.4,6.5,2.7
	c2,1.3,4.2,2.2,6.5,2.7c2.3,0.3,2.9,9.7,1.3,15.8c-0.3,1.1-0.5,2.7,0.6,3.2c1.3,0.7,2.6-1,4.1-1.2c1.4,0,2.5,1,2.6,2.4
	c0,1.3-0.6,2.6-1.7,3.3c-1.1,0.8-2.3,1.3-3.5,1.7l0.4,0.6c0.8,1.4,2.4,2.1,3.9,1.6c1.7,2,18.8-3.6,19.7-7.2
	c3.6-3.2,6.6-7.1,8.8-11.4C618.5,110,619,105,617.7,100.3z"/>
<path class="st5" d="M637.8,176.1c-0.3,2.9-3.1,5.1-5.9,5.7c-1.5,0.3-2.9,0.3-4.4,0.1c-1.4-0.2-2.8-0.5-4.2-0.9
	c-1.7-0.5-3.4-1-5.1-1.6c-4.8-1.7-9.4-3.9-13.8-6.4c-3.3-1.9-6.5-4.1-9.5-6.5c-1.6-1.2-3.1-2.5-4.5-3.9l1.8,0.9
	c-1.6-2.2-3.3-4.4-4.9-6.6c-1.6-2.1-3.2-4.2-4.7-6.4c-0.1-0.1-0.2-0.2-0.2-0.3v0c-0.7-1-1.4-1.9-2.2-2.9c-2.2-2.9-4.3-7.1-1.8-9.7
	c1.1-1,2.6-1.5,4-1.2c0.8,0.1,1.5,0.3,2.2,0.7c1.9,1.2,3.5,2.8,4.7,4.8c1.7-2.5,5-3.4,7.9-3c0.2,0,0.3,0,0.5,0.1
	c3.1,0.5,4.4-1.1,7.1,0.5c1.2,0.8,2,4.7,3.2,5.4c0.7,0.4,3.3,1.1,4,1.5c1.4,0.9,1.1,4.1,2.5,5c1.1,0.6,3.9-1.1,4.9-0.4
	c1.1,0.7,2.6,5.2,3.7,5.9c2.2,1.4,4-1.1,6.2,0.2c2.8,1.7,5.8,3.7,7,6.8c1.1,2.7-0.3,6.5-2.9,7.2
	C636.2,171.2,638.1,173.5,637.8,176.1z"/>
<path class="st8" d="M618.2,179.3l-0.3,2.7c-3.1-0.3-6.1-1-9-2c-3.8-1.3-7.1-3.7-9.5-7c-1.5-2.2-3-4.4-4.5-6.5
	c-2.6-3.6-5.1-6.9-7.2-9.6c-2.6-3.3-4.5-5.6-5.2-6.4c-0.1-0.1-0.2-0.2-0.2-0.3l0,0l0,0c12.9,16.3,25,25.7,36.2,25.4
	C618.6,175.6,619.9,179.9,618.2,179.3z"/>
<path class="st4" d="M500.5,48.9c-1.2,4.6,1.6,9.3,6.2,10.5c0.5,0.1,1,0.2,1.5,0.3l14.4,52.8l10.7-11.9l-15.6-49.5
	c0.1-4.8-3.8-8.7-8.6-8.8C505,42.3,501.5,45,500.5,48.9z"/>
<path class="st5" d="M585,183.9l-0.1-4.8l-9.1-17.2l-0.3-0.6l0,0l-7-13.2l-33.6-63.7l-3.6-1.3l0.2-5.2l-0.2-5.7l-4.3-2.9l-1.8-3.5
	l-2.6,0.7h0l-0.1,0l-11.5,3.2h0l-2.4,1.3l-2.2,6.5l-0.5,3.1l0.5,5.6l5.4,1.1l-1.8,5.7l5.4,16.5c6.8,28.8,16.1,53.7,32.2,67.8
	l1.3,2.2l10.4,17.1c2.9,4.8,8.4,7.3,14,6.5h0c1.8-0.3,3.6-0.9,5.2-1.9c1.5-0.9,2.7-2.1,3.7-3.4c1.9-2.5,2.9-5.5,2.8-8.6L585,183.9z"
	/>
<path class="st9" d="M774.8,599.7L480.6,600c-0.7,0-1.3-0.6-1.3-1.3c0-0.7,0.6-1.3,1.3-1.3l294.2-0.3c0.7,0,1.3,0.6,1.3,1.3
	C776.1,599.1,775.5,599.7,774.8,599.7z"/>
<path class="st6" d="M120.5,166.4c0-16.3,6.2-31.9,17.4-43.8L99.5,69.9c-6.1-8.4-17.8-10.2-26.1-4.1c-0.7,0.5-1.4,1.1-2.1,1.8
	C44.8,93.4,29.8,128.9,30,166c0,6.9,0.5,13.8,1.5,20.7c0.8,5.5,4,10.3,8.7,13.2c4.7,2.9,10.4,3.6,15.6,1.9l66.2-21.5
	C121,175.7,120.5,171.1,120.5,166.4z"/>
<path class="st5" d="M124,187.3l-68.8,22.4c-9.8,3.2-15.2,13.7-12,23.5c0.3,0.8,0.6,1.7,1,2.5c19.9,40.4,58.2,68.5,102.7,75.4
	c5.4,0.8,10.9-0.7,15-4.3c4.1-3.6,6.5-8.7,6.5-14.2v-64.3C147.7,222.9,131,207.5,124,187.3z"/>
<path class="st7" d="M331,227.5c-2.4-5.6-7-9.9-12.8-11.7l-75.1-24.4c-8.9,21-28.3,35.6-51,38.4V308c0,11.5,9.3,20.8,20.8,20.8
	c1.1,0,2.1-0.1,3.2-0.2c49.5-7.7,92.2-39,114.3-83.9C333.2,239.3,333.4,233,331,227.5z"/>
<path class="st2" d="M312.4,48.1c-8.2-8-21.4-7.9-29.4,0.3c-0.7,0.7-1.4,1.5-2,2.3l-51.3,70.7c11.9,12,18.6,28.2,18.6,45
	c0,1.6-0.1,3.1-0.2,4.6l81.6,26.5c11,3.5,22.7-2.5,26.3-13.4c0.4-1.1,0.6-2.2,0.8-3.4c1.1-7.6,1.7-15.3,1.7-23
	C358.5,116.4,341.9,76.9,312.4,48.1z"/>
<path class="st5" d="M184.4,102.5c11,0,21.8,2.8,31.4,8.2l31.3-43.1c3.2-4.4,4.4-10.1,3.1-15.4c-1.2-5.2-4.7-9.7-9.5-12.1
	c-39.2-20-85.6-20-124.9-0.2c-4.9,2.5-8.5,7-9.8,12.4c-1.3,5.3-0.2,10.9,3,15.3l35.5,48.9C155.8,107.5,169.8,102.5,184.4,102.5z"/>
</svg>
