<?xml version="1.0" encoding="utf-8"?>
<!-- Generator: Adobe Illustrator 26.3.1, SVG Export Plug-In . SVG Version: 6.00 Build 0)  -->
<svg version="1.1" id="Layer_1" xmlns="http://www.w3.org/2000/svg" xmlns:xlink="http://www.w3.org/1999/xlink" x="0px" y="0px"
	 viewBox="0 0 800 600" style="enable-background:new 0 0 800 600;" xml:space="preserve">
<style type="text/css">
	.st0{fill:#E6E6E6;}
	.st1{fill:#A0616A;}
	.st2{fill:#2F2E41;}
	.st3{fill:#CACACA;}
	.st4{fill:#575A89;}
	.st5{opacity:0.2;enable-background:new    ;}
	.st6{fill:#FFFFFF;}
	.st7{fill:#E4E4E4;}
	.st8{fill:#3535E5;}
</style>
<path class="st0" d="M478.6,551.7l-8.4-5.4c-0.4-4.7-0.5-9.4-0.4-14.1l4.4,1.1l-4.3-2.7c0.2-5.8,0.8-9.7,0.8-9.7s17,11,27.9,26
	l-1.8,12.7l4.4-8.9c1.1,1.8,2.1,3.7,3,5.6c8.9,19.5,9.8,38.3,1.9,41.9c-7.9,3.6-21.5-9.3-30.4-28.8c-2.7-6.3-4.4-12.9-5.1-19.7
	L478.6,551.7z"/>
<path class="st0" d="M461.3,570.5l-10-0.2c-2.8-3.8-5.3-7.8-7.6-11.9l4.3-1.3l-5.1-0.1c-2.8-5.1-4.3-8.7-4.3-8.7s20.3,0.7,37.3,7.9
	l5,11.8L480,558c1.9,1,3.7,2,5.5,3.2c17.7,12.1,28.2,27.7,23.3,34.8c-4.9,7.1-23.2,3.1-41-9c-5.6-4-10.5-8.8-14.6-14.3L461.3,570.5z
	"/>
<polygon class="st1" points="520.2,588.1 509.3,588.1 505.2,545.8 520.2,546.1 "/>
<path class="st2" d="M523,598.7l-35.1,0v-0.4c0-7.5,6.1-13.7,13.7-13.7h0l21.4,0L523,598.7z"/>
<polygon class="st1" points="648.7,556.7 641.5,564.9 606.4,541.3 617,529.1 "/>
<path class="st2" d="M658.4,561.5l-23,26.5l-0.3-0.3c-5.7-4.9-6.3-13.6-1.4-19.3l0,0l14.1-16.2L658.4,561.5z"/>
<path class="st3" d="M705.1,600H408.2c-0.6,0-1.1-0.5-1.1-1.1c0-0.6,0.5-1.1,1.1-1.1h296.9c0.6,0,1.1,0.5,1.1,1.1
	S705.7,600,705.1,600C705.1,600,705.1,600,705.1,600z"/>
<path class="st2" d="M544.1,488.4l-22.9,84.9h-17.8l3.9-92.8l10.3-90.4l37.4-2L544.1,488.4z"/>
<path class="st2" d="M583.9,390.1c0,0,2,12.9-6,26.8s-3,60.6-3,60.6l67.1,67.4c0,0-10.4,18.1-15.4,17.1c-5-1-83.5-64.6-83.5-64.6
	L517.7,394L583.9,390.1z"/>
<ellipse transform="matrix(0.1891 -0.982 0.982 0.1891 230.6229 712.8113)" class="st1" cx="546.9" cy="216.8" rx="22.9" ry="22.9"/>
<path class="st4" d="M547.9,252.7c0,0,26.6-10.1,26.6-7.1s26.3,28.2,20.3,61c-6,32.8-12.9,48.7-9.9,66.6s1,21.9,1,21.9
	s-69.2,6-70.2-1c-1-7,2.9-17.6,2.9-20.5C518.6,370.5,546,260.4,547.9,252.7z"/>
<polygon class="st5" points="577.9,350.4 551.6,393.5 560.5,393.5 "/>
<path class="st2" d="M557.2,230.5c-1.9-1-4-1.2-6-1.8c-7.2-2.2-12-10.3-10.4-17.6c0.3-0.9,0.4-1.9,0.4-2.9c-0.3-2.2-2.5-3.6-4.6-4.1
	c-2.1-0.5-4.4-0.4-6.4-1.2c-3.1-1.2-5.2-4.5-5.7-7.8c-0.3-3.4,0.4-6.8,2.2-9.7l0.8,2.2c1.2-1,2-2.3,2.5-3.8c1.8,0.3,3.3,1.5,3.9,3.2
	c1.2,0.7,1.4-2.3,2.8-2.7c0.6-0.1,1.2,0.1,1.7,0.4c2.7,1.3,5.9,0.2,8.9-0.5c5.1-1.2,10.4-1.2,15.5,0c3.4,0.8,6.8,2.2,9.2,4.7
	c1.9,2.2,3.4,4.7,4.3,7.4c2.6,6.6,4.3,13.6,3.5,20.7c-0.7,5.7-3.1,11.1-6.9,15.5c-2,2.3-8.4,10.2-11.9,8.8
	C556.5,239.5,562.5,233.3,557.2,230.5z"/>
<rect x="530.2" y="426.6" transform="matrix(0.9343 -0.3564 0.3564 0.9343 -130.2421 219.6039)" class="st5" width="1.4" height="73.4"/>
<path class="st6" d="M244,409.8c-12.1-34.9-50.3-53.3-85.2-41.2c-34.9,12.1-53.3,50.3-41.2,85.2c2.5,7.1,6.1,13.7,10.8,19.6
	c0.6,0.8,1.2,1.5,1.9,2.2c0,0,0.1,0.1,0.1,0.1c1.6,1.8,3.2,3.5,5,5.1c0.5,0.4,0.9,0.9,1.4,1.3c0.9,0.8,1.8,1.6,2.8,2.3
	c0.4,0.3,0.8,0.6,1.2,0.9c1.5,1.2,3.1,2.2,4.8,3.3l0.1,0c0.5,0.3,0.9,0.6,1.4,0.9c0.9,0.5,1.8,1,2.6,1.5l0.6,0.3
	c1.3,0.7,2.6,1.3,4,1.9c0.3,0.1,0.6,0.2,0.9,0.4c0,0,0,0,0.1,0c0.6,0.3,1.3,0.5,1.9,0.8c2.1,0.8,4.3,1.5,6.5,2.1
	c5.6,1.5,11.4,2.3,17.3,2.3c2.1,0,4.2-0.1,6.3-0.3c4.7-0.4,9.4-1.4,14-2.8c0,0,0,0,0,0c2.9-0.9,5.7-2,8.4-3.3c0,0,0,0,0,0
	c0.6-0.3,1.2-0.6,1.8-0.9c0.1,0,0.2-0.1,0.3-0.1c0.5-0.3,1-0.5,1.4-0.8c1.2-0.7,2.4-1.4,3.5-2.1c0.3-0.2,0.6-0.4,1-0.6
	c0.5-0.3,0.9-0.6,1.4-0.9c0.6-0.4,1.2-0.8,1.8-1.3c0.2-0.1,0.4-0.3,0.6-0.4C244.3,467.6,253.5,437.2,244,409.8L244,409.8z"/>
<path class="st7" d="M215.4,482.3c-5.7-3-11.6-5.5-17.8-7.5l-0.8-8.6l-31.7-3.4l-4,11l-11.4,4.3c-0.4,0.2-0.8,0.4-1.2,0.6h0
	c-1.3,0.9-2.2,2.2-2.4,3.7c-0.1,0.8-0.1,1.5,0.1,2.3l0.6,2.5c0.9,0.5,1.8,1,2.6,1.5l0.6,0.3c1.3,0.7,2.6,1.3,4,1.9
	c0.3,0.1,0.6,0.2,0.9,0.4c0,0,0,0,0.1,0c0.6,0.3,1.3,0.5,1.9,0.8c2.1,0.8,4.3,1.5,6.5,2.1c5.6,1.5,11.4,2.3,17.3,2.3
	c2.1,0,4.2-0.1,6.3-0.3c4.7-0.4,9.4-1.4,14-2.8c0,0,0,0,0,0c2.9-0.9,5.7-2,8.4-3.3c0,0,0,0,0,0c0.6-0.3,1.2-0.6,1.8-0.9
	c0.1,0,0.2-0.1,0.3-0.1c0.5-0.3,1-0.5,1.4-0.8c1.2-0.7,2.4-1.4,3.5-2.1c0.3-0.2,0.6-0.4,1-0.6c0.5-0.3,0.9-0.6,1.4-0.9
	C217.8,483.6,216.6,483,215.4,482.3z"/>
<path class="st7" d="M156,487.6l-2-8.9h-5.2c-0.1,0-0.1,0-0.2,0h0c-1.9,0.2-3.7,0.8-5.2,1.8c-1.1,0.7-2,1.5-2.8,2.5
	c1.5,1.2,3.1,2.2,4.8,3.3l0.1,0c0.5,0.3,0.9,0.6,1.4,0.9c0.9,0.5,1.8,1,2.6,1.5l0.6,0.3c1.3,0.7,2.6,1.3,4,1.9
	c0.3,0.1,0.6,0.2,0.9,0.4c0,0,0,0,0.1,0c0.6,0.3,1.3,0.5,1.9,0.8L156,487.6z"/>
<circle class="st6" cx="179.8" cy="434.5" r="22.8"/>
<path class="st7" d="M179.8,458.2c-13.1,0-23.7-10.6-23.7-23.7c0-13.1,10.6-23.7,23.7-23.7c4,0,7.9,1,11.3,2.9l0,0
	c11.5,6.3,15.7,20.7,9.4,32.2C196.4,453.5,188.5,458.2,179.8,458.2z M179.9,412.6c-12.1,0-21.9,9.8-21.9,21.9
	c0,12.1,9.8,21.9,21.9,21.9c12.1,0,21.9-9.8,21.9-21.9c0-8-4.4-15.4-11.4-19.3C187.1,413.5,183.5,412.6,179.9,412.6L179.9,412.6z"/>
<path class="st7" d="M164.5,423.4c2.4,2.8,6.4,3.6,10,3.9c7.5,0.7,18.4-0.4,25.7-2.1c0.5,5.1-0.9,10.5,2.1,14.7
	c1.4-5,2.2-10.2,2.4-15.4c0.2-2.2-0.1-4.5-0.9-6.6c-0.9-2.1-2.9-3.8-5.2-3.8c1.7-1.3,3.7-2.1,5.8-2.5l-7.2-3.6l1.9-1.9l-13.1-0.8
	l3.8-2.4c-5.7-0.8-11.5-1-17.2-0.5c-2.7,0.2-5.5,0.6-7.6,2.1c-2.2,1.5-3.4,4.6-2.1,6.9c-3.4,0.6-6.3,2.9-7.6,6.1
	c-0.8,2.5-1,5.2-0.6,7.8c0.5,4.2,1.5,8.3,2.9,12.2L164.5,423.4z"/>
<path class="st7" d="M244,409.8c-12.1-34.9-50.3-53.3-85.2-41.2c-34.9,12.1-53.3,50.3-41.2,85.2c2.5,7.1,6.1,13.7,10.8,19.6
	c0.6,0.8,1.2,1.5,1.9,2.2c0,0,0.1,0.1,0.1,0.1c1.6,1.8,3.2,3.5,5,5.1c0.5,0.4,0.9,0.9,1.4,1.3c0.9,0.8,1.8,1.6,2.8,2.3
	c0.4,0.3,0.8,0.6,1.2,0.9c1.5,1.2,3.1,2.2,4.8,3.3l0.1,0c0.5,0.3,0.9,0.6,1.4,0.9c0.9,0.5,1.8,1,2.6,1.5l0.6,0.3
	c1.3,0.7,2.6,1.3,4,1.9c0.3,0.1,0.6,0.2,0.9,0.4c0,0,0,0,0.1,0c0.6,0.3,1.3,0.5,1.9,0.8c2.1,0.8,4.3,1.5,6.5,2.1
	c5.6,1.5,11.4,2.3,17.3,2.3c2.1,0,4.2-0.1,6.3-0.3c4.7-0.4,9.4-1.4,14-2.8c0,0,0,0,0,0c2.9-0.9,5.7-2,8.4-3.3c0,0,0,0,0,0
	c0.6-0.3,1.2-0.6,1.8-0.9c0.1,0,0.2-0.1,0.3-0.1c0.5-0.3,1-0.5,1.4-0.8c1.2-0.7,2.4-1.4,3.5-2.1c0.3-0.2,0.6-0.4,1-0.6
	c0.5-0.3,0.9-0.6,1.4-0.9c0.6-0.4,1.2-0.8,1.8-1.3c0.2-0.1,0.4-0.3,0.6-0.4C244.3,467.6,253.5,437.2,244,409.8L244,409.8z
	 M219,482.2c-0.4,0.3-0.8,0.6-1.2,0.9c-0.4,0.3-0.8,0.6-1.2,0.9c-0.3,0.3-0.7,0.5-1.1,0.7c0,0-0.1,0-0.1,0.1
	c-0.3,0.2-0.5,0.3-0.8,0.5c-1,0.6-2,1.2-3,1.8c-0.1,0.1-0.2,0.1-0.3,0.2c-0.5,0.3-0.9,0.5-1.4,0.7c-0.1,0-0.1,0.1-0.2,0.1l-0.1,0
	c-0.6,0.3-1.2,0.6-1.8,0.9c-2.3,1.1-4.6,2-7,2.8c-0.3,0.1-0.6,0.2-0.9,0.3c-4.3,1.4-8.7,2.3-13.2,2.7c-2,0.2-4,0.3-6,0.3
	c-5.5,0-11-0.7-16.3-2.1c-2.7-0.7-5.4-1.6-8-2.7c-0.1-0.1-0.3-0.1-0.4-0.2c-0.1-0.1-0.3-0.1-0.4-0.2c-0.1-0.1-0.3-0.1-0.4-0.2
	c-1.1-0.5-2.2-1-3.3-1.6l-0.5-0.3c-1.3-0.7-2.6-1.4-3.9-2.2c-0.4-0.2-0.8-0.5-1.1-0.7c-0.1-0.1-0.2-0.1-0.3-0.2
	c-0.9-0.6-1.7-1.2-2.5-1.8c-0.6-0.4-1.1-0.8-1.7-1.3c-0.9-0.7-1.8-1.4-2.7-2.2c-0.5-0.4-0.9-0.8-1.3-1.2c-1.7-1.6-3.3-3.2-4.8-5
	c-0.5-0.6-1-1.2-1.5-1.8c-0.1-0.1-0.2-0.2-0.3-0.4c-21.7-27.4-17.1-67.2,10.3-88.8s67.2-17.1,88.8,10.3
	c21.7,27.4,17.1,67.2-10.3,88.8C219.7,481.6,219.4,481.9,219,482.2L219,482.2z"/>
<path class="st6" d="M244,228c-12.1-34.9-50.3-53.3-85.2-41.2c-34.9,12.1-53.3,50.3-41.2,85.2c2.5,7.1,6.1,13.7,10.8,19.6
	c0.6,0.8,1.2,1.5,1.9,2.2c0,0,0.1,0.1,0.1,0.1c1.6,1.8,3.2,3.5,5,5.1c0.5,0.4,0.9,0.9,1.4,1.3c0.9,0.8,1.8,1.6,2.8,2.3
	c0.4,0.3,0.8,0.6,1.2,0.9c1.5,1.2,3.1,2.2,4.8,3.3l0.1,0c0.5,0.3,0.9,0.6,1.4,0.9c0.9,0.5,1.8,1,2.6,1.5l0.6,0.3
	c1.3,0.7,2.6,1.3,4,1.9c0.3,0.1,0.6,0.2,0.9,0.4c0,0,0,0,0.1,0c0.6,0.3,1.3,0.5,1.9,0.8c2.1,0.8,4.3,1.5,6.5,2.1
	c5.6,1.5,11.4,2.3,17.3,2.3c2.1,0,4.2-0.1,6.3-0.3c4.7-0.4,9.4-1.4,14-2.8c0,0,0,0,0,0c2.9-0.9,5.7-2,8.4-3.3c0,0,0,0,0,0
	c0.6-0.3,1.2-0.6,1.8-0.9c0.1,0,0.2-0.1,0.3-0.1c0.5-0.3,1-0.5,1.4-0.8c1.2-0.7,2.4-1.4,3.5-2.1c0.3-0.2,0.6-0.4,1-0.6
	c0.5-0.3,0.9-0.6,1.4-0.9c0.6-0.4,1.2-0.8,1.8-1.3c0.2-0.1,0.4-0.3,0.6-0.4C244.3,285.8,253.5,255.4,244,228L244,228z"/>
<path class="st7" d="M157.2,265.7l3.9,13.5l49.7-0.9l-0.4-24.7c-0.3-19.5-14.1-36.4-33.7-36c-19.5,0.3-31.9,16.8-31.6,36.4l2.8,25.4
	l8.1-0.1L157.2,265.7z"/>
<circle class="st6" cx="178.9" cy="252.8" r="22.3"/>
<path class="st7" d="M223.2,287.6l-0.5,9.4c-22.2,23.1-58.7,24.5-82.7,3.2c-0.5-0.5-1-0.9-1.5-1.4c3.1-3.1,11.6-10.6,21.1-11.3
	l42.7-2.7C202.3,284.7,218.4,282.8,223.2,287.6z"/>
<path class="st7" d="M203.2,237.2c0-1.7-0.6-3.4-1.5-4.8c-0.1-0.1-0.2-0.3-0.3-0.4c-1.7-2.1-4.2-3.4-7-3.3l-16,0.3l-16,0.3
	c-4.8,0.1-8.6,4-8.5,8.8l3.8,7.7l2.2,4.4l0.4-0.2c13.9-7.8,19.5-7.9,37.8-0.6l0.4,0.1l1.5-3.7L203.2,237.2L203.2,237.2z"/>
<path class="st7" d="M228.3,293.9c-1.3,1.6-2.4,1.6-3.9,3.1c-3.7,3.8-9.5,7.1-14.1,9.8l-1-17.9l13.9-1.3
	C223.2,287.6,226.3,289.2,228.3,293.9z"/>
<path class="st7" d="M244,228c-12.1-34.9-50.3-53.3-85.2-41.2c-34.9,12.1-53.3,50.3-41.2,85.2c2.5,7.1,6.1,13.7,10.8,19.6
	c0.6,0.8,1.2,1.5,1.9,2.2c0,0,0.1,0.1,0.1,0.1c1.6,1.8,3.2,3.5,5,5.1c0.5,0.4,0.9,0.9,1.4,1.3c0.9,0.8,1.8,1.6,2.8,2.3
	c0.4,0.3,0.8,0.6,1.2,0.9c1.5,1.2,3.1,2.2,4.8,3.3l0.1,0c0.5,0.3,0.9,0.6,1.4,0.9c0.9,0.5,1.8,1,2.6,1.5l0.6,0.3
	c1.3,0.7,2.6,1.3,4,1.9c0.3,0.1,0.6,0.2,0.9,0.4c0,0,0,0,0.1,0c0.6,0.3,1.3,0.5,1.9,0.8c2.1,0.8,4.3,1.5,6.5,2.1
	c5.6,1.5,11.4,2.3,17.3,2.3c2.1,0,4.2-0.1,6.3-0.3c4.7-0.4,9.4-1.4,14-2.8c0,0,0,0,0,0c2.9-0.9,5.7-2,8.4-3.3c0,0,0,0,0,0
	c0.6-0.3,1.2-0.6,1.8-0.9c0.1,0,0.2-0.1,0.3-0.1c0.5-0.3,1-0.5,1.4-0.8c1.2-0.7,2.4-1.4,3.5-2.1c0.3-0.2,0.6-0.4,1-0.6
	c0.5-0.3,0.9-0.6,1.4-0.9c0.6-0.4,1.2-0.8,1.8-1.3c0.2-0.1,0.4-0.3,0.6-0.4C244.3,285.8,253.5,255.4,244,228L244,228z M219,300.4
	c-0.4,0.3-0.8,0.6-1.2,0.9c-0.4,0.3-0.8,0.6-1.2,0.9c-0.3,0.3-0.7,0.5-1.1,0.7c0,0-0.1,0-0.1,0.1c-0.3,0.2-0.5,0.3-0.8,0.5
	c-1,0.6-2,1.2-3,1.8c-0.1,0.1-0.2,0.1-0.3,0.2c-0.5,0.3-0.9,0.5-1.4,0.7c-0.1,0-0.1,0.1-0.2,0.1l-0.1,0c-0.6,0.3-1.2,0.6-1.8,0.9
	c-2.3,1.1-4.6,2-7,2.8c-0.3,0.1-0.6,0.2-0.9,0.3c-4.3,1.4-8.7,2.3-13.2,2.7c-2,0.2-4,0.3-6,0.3c-5.5,0-11-0.7-16.3-2.1
	c-2.7-0.7-5.4-1.6-8-2.7c-0.1-0.1-0.3-0.1-0.4-0.2c-0.1-0.1-0.3-0.1-0.4-0.2c-0.1-0.1-0.3-0.1-0.4-0.2c-1.1-0.5-2.2-1-3.3-1.6
	l-0.5-0.3c-1.3-0.7-2.6-1.4-3.9-2.2c-0.4-0.2-0.8-0.5-1.1-0.7c-0.1-0.1-0.2-0.1-0.3-0.2c-0.9-0.6-1.7-1.2-2.5-1.8
	c-0.6-0.4-1.1-0.8-1.7-1.3c-0.9-0.7-1.8-1.4-2.7-2.2c-0.5-0.4-0.9-0.8-1.3-1.2c-1.7-1.6-3.3-3.2-4.8-5c-0.5-0.6-1-1.2-1.5-1.8
	c-0.1-0.1-0.2-0.2-0.3-0.4c-21.7-27.4-17.1-67.2,10.3-88.8s67.2-17.1,88.8,10.3c21.7,27.4,17.1,67.2-10.3,88.8
	C219.7,299.9,219.4,300.1,219,300.4L219,300.4z"/>
<path class="st6" d="M246.6,45.8c-12.4-35.6-51.3-54.4-86.9-42s-54.4,51.3-42,86.9c2.5,7.2,6.2,14,11,20c0.6,0.8,1.2,1.5,1.9,2.3
	c0,0,0.1,0.1,0.1,0.1c1.6,1.8,3.3,3.6,5.1,5.2c0.5,0.4,1,0.9,1.4,1.3c0.9,0.8,1.9,1.6,2.9,2.4c1.9,1.5,4,2.9,6.1,4.3l0.1,0
	c1.4,0.8,2.7,1.6,4.2,2.4l0.6,0.3c1.3,0.7,2.7,1.3,4.1,1.9c0.3,0.1,0.6,0.2,0.9,0.4c0,0,0,0,0.1,0c2.8,1.2,5.7,2.1,8.6,2.9
	c5.7,1.5,11.7,2.3,17.6,2.3c2.2,0,4.3-0.1,6.4-0.3c4.8-0.4,9.6-1.4,14.3-2.9c0,0,0,0,0,0c2.9-0.9,5.8-2.1,8.6-3.4c0,0,0,0,0,0
	c0.6-0.3,1.2-0.6,1.8-0.9l0.3-0.1c0.5-0.3,1-0.5,1.5-0.8c1.2-0.7,2.4-1.4,3.6-2.1c0.3-0.2,0.6-0.4,1-0.6c1.1-0.7,2.1-1.5,3.2-2.2
	c0.2-0.1,0.4-0.3,0.6-0.4C246.9,104.8,256.3,73.8,246.6,45.8L246.6,45.8z"/>
<circle id="bf91a0f9-b34c-4dd5-a205-d34f0555e32d" class="st7" cx="204.6" cy="86.2" r="10.2"/>
<path id="a8dca41c-33b1-460f-bf5d-f4e2657dd513-58" class="st7" d="M207.5,76.2c5.7,0,10.2,4.6,10.2,10.2c0,1.7-0.4,3.4-1.2,4.9
	c3.5-4.4,2.8-10.8-1.6-14.4c-4.4-3.5-10.8-2.8-14.4,1.6c-0.4,0.5-0.7,1-1,1.5C201.4,77.6,204.4,76.2,207.5,76.2L207.5,76.2z"/>
<circle id="ee3a206a-c546-4577-b9a7-054ec3fd2c40" class="st7" cx="185.5" cy="56.1" r="30"/>
<path id="fdfc7426-35cb-40c9-aba8-b1c391ef3d9b-59" class="st7" d="M161.9,37.5c10.8-12.1,29.2-13.5,41.6-3.2
	c-0.2-0.2-0.5-0.5-0.7-0.7c-12.4-11.1-31.4-10-42.4,2.4c-11.1,12.4-10,31.3,2.3,42.4c0.1,0.1,0.1,0.1,0.2,0.2
	c0.3,0.2,0.5,0.4,0.8,0.7C152,68,151.2,49.6,161.9,37.5L161.9,37.5z"/>
<circle id="a62bd645-2725-442b-8d00-c1bfcb60d6c9" class="st6" cx="185.3" cy="66.5" r="19.4"/>
<path class="st7" d="M219.9,117v6.5c-1.2,0.8-2.4,1.5-3.6,2.1c-0.5,0.3-1,0.5-1.5,0.8l-0.3,0.1c-0.6,0.3-1.2,0.6-1.8,0.9
	c0,0,0,0,0,0c-2.8,1.3-5.6,2.5-8.6,3.4c0,0,0,0,0,0c-4.6,1.5-9.4,2.4-14.3,2.9c-2.1,0.2-4.3,0.3-6.4,0.3c-5.9,0-11.9-0.8-17.6-2.3
	c-2.9-0.8-5.8-1.7-8.6-2.9c0,0,0,0-0.1,0c-0.3-0.1-0.6-0.2-0.9-0.4c-1.4-0.6-2.7-1.2-4.1-1.9l-0.6-0.3c-1.4-0.7-2.8-1.5-4.2-2.4
	l-0.1,0c-2.1-1.3-4.1-2.7-6.1-4.3c-1-0.8-1.9-1.6-2.9-2.4c-0.5-0.4-1-0.9-1.4-1.3c-1.8-1.7-3.5-3.4-5.1-5.2c0.2-1.3,0.5-2.5,0.9-3.8
	l0,0c0.1-0.2,0.2-0.4,0.3-0.6c0.1-0.2,0.1-0.3,0.2-0.5c2.2-4.1,6.2-5.1,11.1-5.3c2.8-0.1,5.9,0,9.1,0c1.7,0,3.5-0.1,5.3-0.2
	c11.2-1,9.2-7.6,9.7-11.2c0.5-3.5,3.6-0.5,3.8-0.3l0,0c6.3,3,13.4,4.2,20.3,3.6c1.2-0.1,2.4-0.2,3.6-0.3c3.2,0,2.5,0.9,1.4,1.6
	c-0.5,0.3-1.1,0.7-1.7,0.9c0,0-0.5,3.1-1,7.6c-0.5,4.4,15,5.9,18,6.9h0C216.5,110.3,219.1,113.3,219.9,117z"/>
<path id="afe1b400-7bb3-471b-bfb6-771e67eb46b9-60" class="st7" d="M168.7,42.4v19.4h4.5l5.7-6.1l-0.8,6.1H198l-1.2-6.1l2.5,6.1h3.2
	V42.4H168.7z"/>
<ellipse id="f3d4acd6-e9dd-4f82-a51e-6d6f5add322c" class="st7" cx="165.7" cy="62.5" rx="1.5" ry="2.8"/>
<ellipse id="a3160813-753f-4b2a-bfa5-8e9f95e585bb" class="st7" cx="204.9" cy="62.5" rx="1.5" ry="2.8"/>
<path class="st7" d="M246.6,45.8c-12.4-35.6-51.3-54.4-86.9-42s-54.4,51.3-42,86.9c2.5,7.2,6.2,14,11,20c0.6,0.8,1.2,1.5,1.9,2.3
	c0,0,0.1,0.1,0.1,0.1c1.6,1.8,3.3,3.6,5.1,5.2c0.5,0.4,1,0.9,1.4,1.3c0.9,0.8,1.9,1.6,2.9,2.4c1.9,1.5,4,2.9,6.1,4.3l0.1,0
	c1.4,0.8,2.7,1.6,4.2,2.4l0.6,0.3c1.3,0.7,2.7,1.3,4.1,1.9c0.3,0.1,0.6,0.2,0.9,0.4c0,0,0,0,0.1,0c2.8,1.2,5.7,2.1,8.6,2.9
	c5.7,1.5,11.7,2.3,17.6,2.3c2.2,0,4.3-0.1,6.4-0.3c4.8-0.4,9.6-1.4,14.3-2.9c0,0,0,0,0,0c2.9-0.9,5.8-2.1,8.6-3.4c0,0,0,0,0,0
	c0.6-0.3,1.2-0.6,1.8-0.9l0.3-0.1c0.5-0.3,1-0.5,1.5-0.8c1.2-0.7,2.4-1.4,3.6-2.1c0.3-0.2,0.6-0.4,1-0.6c1.1-0.7,2.1-1.5,3.2-2.2
	c0.2-0.1,0.4-0.3,0.6-0.4C246.9,104.8,256.3,73.8,246.6,45.8L246.6,45.8z M221.1,119.7c-0.4,0.3-0.8,0.6-1.2,0.9
	c-0.4,0.3-0.8,0.6-1.2,0.9c-0.4,0.3-0.7,0.5-1.1,0.7c-0.3,0.2-0.6,0.4-0.9,0.6c-1,0.6-2,1.2-3.1,1.8c-0.1,0.1-0.2,0.1-0.3,0.2
	c-0.5,0.3-0.9,0.5-1.4,0.7c-0.1,0-0.1,0.1-0.2,0.1l-0.1,0c-0.6,0.3-1.2,0.6-1.8,0.9c-2.3,1.1-4.7,2.1-7.1,2.9
	c-0.3,0.1-0.6,0.2-1,0.3c-4.4,1.4-8.9,2.3-13.5,2.7c-2,0.2-4,0.3-6.1,0.3c-5.6,0-11.2-0.7-16.7-2.2c-2.8-0.7-5.5-1.7-8.2-2.8
	c-0.3-0.1-0.6-0.2-0.8-0.3c-0.1-0.1-0.3-0.1-0.4-0.2c-1.2-0.5-2.3-1.1-3.4-1.6l-0.5-0.3c-1.4-0.7-2.7-1.5-4-2.3
	c-0.5-0.3-1-0.6-1.4-0.9c-1.5-1-2.9-2-4.3-3.1c-0.9-0.7-1.8-1.5-2.7-2.3c-0.5-0.4-0.9-0.8-1.4-1.2c-1.7-1.6-3.4-3.3-4.9-5.1
	c-0.5-0.6-1-1.2-1.5-1.8c-0.1-0.1-0.2-0.2-0.3-0.4c-22.1-27.9-17.4-68.5,10.5-90.6s68.5-17.4,90.6,10.5
	c22.1,27.9,17.4,68.5-10.5,90.6C221.8,119.1,221.5,119.4,221.1,119.7z"/>
<path class="st8" d="M265.6,153.1l-48.1-1.1c-4.8-18.6-2.6-36.3,1.2-52.7l48.1,1.1C261.9,117.6,261.5,135.8,265.6,153.1z"/>
<polygon class="st6" points="226.9,111 227,109.2 251.9,110.1 251.8,111.9 "/>
<polygon class="st6" points="226.8,118.3 226.9,116.5 251.8,117.4 251.7,119.2 "/>
<polygon class="st6" points="226.7,125.6 226.8,123.8 251.7,124.7 251.6,126.5 "/>
<polygon class="st6" points="226.6,132.9 226.7,131.1 251.5,132 251.5,133.8 "/>
<polygon class="st6" points="226.5,140.3 226.5,138.4 251.4,139.3 251.4,141.1 "/>
<path class="st8" d="M265.6,326.3l-48.1-1.1c-4.8-18.6-2.6-36.3,1.2-52.7l48.1,1.1C261.9,290.8,261.5,308.9,265.6,326.3z"/>
<polygon class="st6" points="226.9,284.2 227,282.3 251.9,283.2 251.8,285.1 "/>
<polygon class="st6" points="226.8,291.5 226.9,289.7 251.8,290.5 251.7,292.4 "/>
<polygon class="st6" points="226.7,298.8 226.8,297 251.7,297.9 251.6,299.7 "/>
<polygon class="st6" points="226.6,306.1 226.7,304.3 251.5,305.2 251.5,307 "/>
<polygon class="st6" points="226.5,313.4 226.5,311.6 251.4,312.5 251.4,314.3 "/>
<path class="st8" d="M265.6,499.5l-48.1-1.1c-4.8-18.6-2.6-36.3,1.2-52.7l48.1,1.1C261.9,464,261.5,482.1,265.6,499.5z"/>
<polygon class="st6" points="226.9,457.3 227,455.5 251.9,456.4 251.8,458.2 "/>
<polygon class="st6" points="226.8,464.7 226.9,462.8 251.8,463.7 251.7,465.5 "/>
<polygon class="st6" points="226.7,472 226.8,470.1 251.7,471 251.6,472.9 "/>
<polygon class="st6" points="226.6,479.3 226.7,477.5 251.5,478.3 251.5,480.2 "/>
<polygon class="st6" points="226.5,486.6 226.5,484.8 251.4,485.7 251.4,487.5 "/>
<path class="st1" d="M522,399.1c0.2-4.9,4.3-8.8,9.2-8.6c0.5,0,1,0.1,1.6,0.2l16.5-27.1l7.1,14.9l-16.7,23.5
	c-1.4,4.8-6.3,7.5-11.1,6.2C524.5,407,521.8,403.2,522,399.1z"/>
<path class="st4" d="M580.9,255.9c0,0,23.3,2.7,14.7,45.6c-8.7,42.9-42.5,92.6-42.5,92.6l-22.9-10.9l29.8-58.6l-7-36.8
	C553.1,287.7,549.1,252.9,580.9,255.9z"/>
</svg>
